<svg width="387" height="180" viewBox="0 0 387 180" fill="none" xmlns="http://www.w3.org/2000/svg">
<path d="M357.283 147H79.1416C77.0999 147 75.6546 145.005 76.291 143.065L88.7792 105L100.919 65.1491C101.308 63.8752 102.489 63.0096 103.821 63.0235L244.779 64.5H382.841C384.888 64.5 386.334 66.5044 385.688 68.4466L374.697 101.5L360.128 144.954C359.718 146.176 358.573 147 357.283 147Z" fill="#009F8F"/>
<path d="M102.42 123.445V90.3838C102.42 87.1559 104.672 84.6748 109.177 82.9404C111.61 82.001 114.356 81.5312 117.415 81.5312C120.474 81.5312 123.22 82.001 125.653 82.9404C130.158 84.6748 132.41 87.1559 132.41 90.3838V120.193L125.545 123.445H125.184V91.6484C125.184 90.444 124.425 89.5407 122.907 88.9385C121.414 88.3363 119.583 88.0352 117.415 88.0352C115.247 88.0352 113.404 88.3363 111.887 88.9385C110.393 89.5407 109.646 90.444 109.646 91.6484V120.193L102.781 123.445H102.42ZM143.25 113.87V90.3838C143.25 87.1559 145.502 84.6748 150.007 82.9404C152.44 82.001 155.186 81.5312 158.245 81.5312C161.304 81.5312 164.05 82.001 166.483 82.9404C170.988 84.723 173.24 87.2041 173.24 90.3838V128.685C173.24 131.912 170.988 134.394 166.483 136.128C164.05 137.067 161.304 137.537 158.245 137.537H147.008V137.176L149.898 131.033H158.245C160.413 131.033 162.244 130.732 163.737 130.13C165.255 129.528 166.014 128.624 166.014 127.42V121.494C163.701 122.313 161.112 122.723 158.245 122.723C155.186 122.723 152.44 122.253 150.007 121.313C145.502 119.531 143.25 117.05 143.25 113.87ZM150.477 112.605C150.477 113.81 151.223 114.713 152.717 115.315C154.234 115.918 156.077 116.219 158.245 116.219C160.437 116.219 162.28 115.918 163.773 115.315C165.267 114.713 166.014 113.81 166.014 112.605V91.6484C166.014 90.444 165.255 89.5407 163.737 88.9385C162.244 88.3363 160.413 88.0352 158.245 88.0352C156.077 88.0352 154.234 88.3363 152.717 88.9385C151.223 89.5407 150.477 90.444 150.477 91.6484V112.605ZM185.164 123.445V90.3838C185.164 87.1559 187.416 84.6748 191.921 82.9404C194.354 82.001 197.1 81.5312 200.159 81.5312C203.218 81.5312 205.965 82.001 208.397 82.9404C212.902 84.6748 215.154 87.1559 215.154 90.3838V120.193L208.289 123.445H207.928V91.6484C207.928 90.444 207.169 89.5407 205.651 88.9385C204.158 88.3363 202.327 88.0352 200.159 88.0352C197.991 88.0352 196.148 88.3363 194.631 88.9385C193.137 89.5407 192.391 90.444 192.391 91.6484V120.193L185.525 123.445H185.164ZM255.984 105.993V113.87C255.984 117.05 253.732 119.531 249.228 121.313C246.795 122.253 244.049 122.723 240.989 122.723C237.93 122.723 235.184 122.253 232.751 121.313C228.246 119.531 225.994 117.05 225.994 113.87V90.3838C225.994 87.2041 228.246 84.723 232.751 82.9404C235.184 82.001 237.93 81.5312 240.989 81.5312C244.049 81.5312 246.795 82.001 249.228 82.9404C253.732 84.723 255.984 87.2041 255.984 90.3838V95.0088L233.221 112.605C233.221 113.81 233.967 114.713 235.461 115.315C236.979 115.918 238.821 116.219 240.989 116.219C243.157 116.219 244.988 115.918 246.481 115.315C247.999 114.713 248.758 113.81 248.758 112.605V109.245L255.623 105.993H255.984ZM233.221 104.981L248.758 92.4795V91.6484C248.758 90.444 247.999 89.5407 246.481 88.9385C244.988 88.3363 243.157 88.0352 240.989 88.0352C238.821 88.0352 236.979 88.3363 235.461 88.9385C233.967 89.5407 233.221 90.444 233.221 91.6484V104.981ZM265.74 109.245L272.605 105.993H272.967V112.605C272.967 113.81 273.714 114.713 275.207 115.315C276.725 115.918 278.567 116.219 280.735 116.219C282.976 116.219 284.818 115.918 286.264 115.315C287.757 114.689 288.504 113.786 288.504 112.605V106.969C288.504 105.788 287.733 104.885 286.191 104.259C284.698 103.657 282.867 103.355 280.699 103.355C278.314 103.355 275.942 102.886 273.581 101.946C269.366 100.236 267.258 97.7549 267.258 94.5029V90.3838C267.258 87.3005 269.257 84.8916 273.256 83.1572C275.737 82.0732 278.23 81.5312 280.735 81.5312C283.12 81.5312 285.18 81.8926 286.914 82.6152C291.081 84.3978 293.165 86.9873 293.165 90.3838L286.3 93.6357H285.938V91.6484C285.938 90.2513 285.445 89.2998 284.457 88.7939C283.469 88.2881 282.229 88.0352 280.735 88.0352C278.664 88.0352 277.098 88.3363 276.038 88.9385C275.002 89.5407 274.484 90.444 274.484 91.6484V93.2383C274.484 94.4427 274.978 95.346 275.966 95.9482C276.953 96.5505 278.531 96.8516 280.699 96.8516C283.758 96.8516 286.505 97.3213 288.938 98.2607C293.466 99.9951 295.73 102.476 295.73 105.704V113.87C295.73 117.074 293.478 119.555 288.974 121.313C286.541 122.253 283.795 122.723 280.735 122.723C277.676 122.723 274.93 122.253 272.497 121.313C267.993 119.531 265.74 117.05 265.74 113.87V109.245ZM307.835 74.2686C306.992 73.4014 306.57 72.3656 306.57 71.1611C306.57 69.9326 306.992 68.8848 307.835 68.0176C308.678 67.1504 309.702 66.7168 310.906 66.7168C312.111 66.7168 313.134 67.1504 313.978 68.0176C314.821 68.8848 315.242 69.9326 315.242 71.1611C315.242 72.3656 314.821 73.4014 313.978 74.2686C313.134 75.1357 312.111 75.5693 310.906 75.5693C309.702 75.5693 308.678 75.1357 307.835 74.2686ZM307.293 123.445V84.0605L314.158 80.8086H314.52V120.193L307.654 123.445H307.293ZM354.627 120.193L347.762 123.445H347.4V121.494C345.088 122.313 342.619 122.723 339.993 122.723C337.175 122.723 334.549 122.253 332.116 121.313C327.612 119.531 325.359 117.05 325.359 113.87V104.114C325.359 100.886 327.612 98.4053 332.116 96.6709C334.549 95.7314 337.175 95.2617 339.993 95.2617C342.643 95.2617 345.112 95.6712 347.4 96.4902V91.6484C347.4 90.444 346.642 89.5407 345.124 88.9385C343.631 88.3363 341.8 88.0352 339.632 88.0352H330.852V87.6738L333.742 81.5312H339.632C342.691 81.5312 345.437 82.001 347.87 82.9404C352.375 84.6748 354.627 87.1559 354.627 90.3838V120.193ZM332.586 112.605C332.586 113.81 333.333 114.713 334.826 115.315C336.344 115.918 338.066 116.219 339.993 116.219C341.92 116.219 343.631 115.918 345.124 115.315C346.642 114.713 347.4 113.81 347.4 112.605V105.379C347.4 104.174 346.642 103.271 345.124 102.669C343.631 102.067 341.92 101.766 339.993 101.766C338.066 101.766 336.344 102.067 334.826 102.669C333.333 103.271 332.586 104.174 332.586 105.379V112.605Z" fill="white"/>
<path d="M102.42 123.445H101.42V124.445H102.42V123.445ZM109.177 82.9404L109.536 83.8736L109.537 83.8733L109.177 82.9404ZM125.653 82.9404L125.293 83.8733L125.294 83.8736L125.653 82.9404ZM132.41 120.193L132.838 121.097L133.41 120.826V120.193H132.41ZM125.545 123.445V124.445H125.77L125.973 124.349L125.545 123.445ZM125.184 123.445H124.184V124.445H125.184V123.445ZM122.907 88.9385L122.533 89.8659L122.538 89.868L122.907 88.9385ZM111.887 88.9385L111.518 88.009L111.513 88.011L111.887 88.9385ZM109.646 120.193L110.075 121.097L110.646 120.826V120.193H109.646ZM102.781 123.445V124.445H103.006L103.209 124.349L102.781 123.445ZM103.42 123.445V90.3838H101.42V123.445H103.42ZM103.42 90.3838C103.42 87.7664 105.194 85.5456 109.536 83.8736L108.817 82.0072C104.151 83.804 101.42 86.5455 101.42 90.3838H103.42ZM109.537 83.8733C111.837 82.9852 114.458 82.5312 117.415 82.5312V80.5312C114.254 80.5312 111.382 81.0168 108.817 82.0076L109.537 83.8733ZM117.415 82.5312C120.372 82.5312 122.993 82.9852 125.293 83.8733L126.014 82.0076C123.448 81.0168 120.577 80.5312 117.415 80.5312V82.5312ZM125.294 83.8736C129.637 85.5456 131.41 87.7664 131.41 90.3838H133.41C133.41 86.5455 130.679 83.804 126.013 82.0072L125.294 83.8736ZM131.41 90.3838V120.193H133.41V90.3838H131.41ZM131.982 119.29L125.117 122.542L125.973 124.349L132.838 121.097L131.982 119.29ZM125.545 122.445H125.184V124.445H125.545V122.445ZM126.184 123.445V91.6484H124.184V123.445H126.184ZM126.184 91.6484C126.184 90.8163 125.914 90.0603 125.38 89.4244C124.861 88.8066 124.133 88.3489 123.276 88.009L122.538 89.868C123.199 90.1302 123.609 90.4253 123.849 90.7108C124.073 90.9782 124.184 91.2761 124.184 91.6484H126.184ZM123.281 88.011C121.635 87.3474 119.669 87.0352 117.415 87.0352V89.0352C119.497 89.0352 121.192 89.3251 122.533 89.8659L123.281 88.011ZM117.415 87.0352C115.16 87.0352 113.184 87.3477 111.518 88.009L112.256 89.868C113.624 89.3249 115.334 89.0352 117.415 89.0352V87.0352ZM111.513 88.011C110.667 88.3522 109.947 88.8116 109.436 89.4305C108.91 90.0667 108.646 90.8206 108.646 91.6484H110.646C110.646 91.2718 110.757 90.9719 110.977 90.7048C111.212 90.4204 111.613 90.1269 112.261 89.8659L111.513 88.011ZM108.646 91.6484V120.193H110.646V91.6484H108.646ZM109.218 119.29L102.353 122.542L103.209 124.349L110.075 121.097L109.218 119.29ZM102.781 122.445H102.42V124.445H102.781V122.445ZM150.007 82.9404L150.366 83.8736L150.367 83.8733L150.007 82.9404ZM166.483 82.9404L166.851 82.0106L166.844 82.0076L166.483 82.9404ZM166.483 136.128L166.124 135.195L166.123 135.195L166.483 136.128ZM147.008 137.537H146.008V138.537H147.008V137.537ZM147.008 137.176L146.103 136.75L146.008 136.952V137.176H147.008ZM149.898 131.033V130.033H149.264L148.994 130.607L149.898 131.033ZM163.737 130.13L163.368 129.2L163.363 129.202L163.737 130.13ZM166.014 121.494H167.014V120.079L165.68 120.552L166.014 121.494ZM150.007 121.313L149.639 122.243L149.647 122.246L150.007 121.313ZM152.717 115.315L152.343 116.243L152.348 116.245L152.717 115.315ZM163.737 88.9385L163.363 89.8659L163.368 89.868L163.737 88.9385ZM152.717 88.9385L152.348 88.009L152.343 88.011L152.717 88.9385ZM144.25 113.87V90.3838H142.25V113.87H144.25ZM144.25 90.3838C144.25 87.7664 146.024 85.5456 150.366 83.8736L149.648 82.0072C144.981 83.804 142.25 86.5455 142.25 90.3838H144.25ZM150.367 83.8733C152.667 82.9852 155.288 82.5312 158.245 82.5312V80.5312C155.084 80.5312 152.212 81.0168 149.647 82.0076L150.367 83.8733ZM158.245 82.5312C161.202 82.5312 163.823 82.9852 166.123 83.8733L166.844 82.0076C164.278 81.0168 161.407 80.5312 158.245 80.5312V82.5312ZM166.115 83.8703C170.469 85.5933 172.24 87.8162 172.24 90.3838H174.24C174.24 86.592 171.506 83.8527 166.851 82.0106L166.115 83.8703ZM172.24 90.3838V128.685H174.24V90.3838H172.24ZM172.24 128.685C172.24 131.302 170.467 133.523 166.124 135.195L166.843 137.061C171.509 135.264 174.24 132.523 174.24 128.685H172.24ZM166.123 135.195C163.823 136.083 161.202 136.537 158.245 136.537V138.537C161.407 138.537 164.278 138.052 166.844 137.061L166.123 135.195ZM158.245 136.537H147.008V138.537H158.245V136.537ZM148.008 137.537V137.176H146.008V137.537H148.008ZM147.913 137.602L150.803 131.459L148.994 130.607L146.103 136.75L147.913 137.602ZM149.898 132.033H158.245V130.033H149.898V132.033ZM158.245 132.033C160.499 132.033 162.466 131.721 164.111 131.057L163.363 129.202C162.022 129.743 160.327 130.033 158.245 130.033V132.033ZM164.106 131.059C164.963 130.719 165.691 130.262 166.21 129.644C166.744 129.008 167.014 128.252 167.014 127.42H165.014C165.014 127.792 164.904 128.09 164.679 128.358C164.439 128.643 164.029 128.938 163.368 129.2L164.106 131.059ZM167.014 127.42V121.494H165.014V127.42H167.014ZM165.68 120.552C163.491 121.327 161.017 121.723 158.245 121.723V123.723C161.207 123.723 163.911 123.3 166.348 122.437L165.68 120.552ZM158.245 121.723C155.288 121.723 152.667 121.269 150.367 120.381L149.647 122.246C152.212 123.237 155.084 123.723 158.245 123.723V121.723ZM150.375 120.384C146.021 118.661 144.25 116.438 144.25 113.87H142.25C142.25 117.662 144.984 120.401 149.639 122.243L150.375 120.384ZM149.477 112.605C149.477 113.433 149.74 114.187 150.266 114.823C150.778 115.442 151.497 115.902 152.343 116.243L153.091 114.388C152.443 114.127 152.042 113.834 151.807 113.549C151.587 113.282 151.477 112.982 151.477 112.605H149.477ZM152.348 116.245C154.014 116.906 155.99 117.219 158.245 117.219V115.219C156.164 115.219 154.454 114.929 153.086 114.386L152.348 116.245ZM158.245 117.219C160.522 117.219 162.501 116.907 164.147 116.243L163.399 114.388C162.059 114.928 160.352 115.219 158.245 115.219V117.219ZM164.147 116.243C164.994 115.902 165.713 115.442 166.224 114.823C166.75 114.187 167.014 113.433 167.014 112.605H165.014C165.014 112.982 164.904 113.282 164.683 113.549C164.448 113.834 164.047 114.127 163.399 114.388L164.147 116.243ZM167.014 112.605V91.6484H165.014V112.605H167.014ZM167.014 91.6484C167.014 90.8163 166.744 90.0603 166.21 89.4244C165.691 88.8066 164.963 88.3489 164.106 88.009L163.368 89.868C164.029 90.1302 164.439 90.4253 164.679 90.7108C164.904 90.9782 165.014 91.2761 165.014 91.6484H167.014ZM164.111 88.011C162.466 87.3474 160.499 87.0352 158.245 87.0352V89.0352C160.327 89.0352 162.022 89.3251 163.363 89.8659L164.111 88.011ZM158.245 87.0352C155.99 87.0352 154.014 87.3477 152.348 88.009L153.086 89.868C154.454 89.3249 156.164 89.0352 158.245 89.0352V87.0352ZM152.343 88.011C151.497 88.3522 150.778 88.8116 150.266 89.4305C149.74 90.0667 149.477 90.8206 149.477 91.6484H151.477C151.477 91.2718 151.587 90.9719 151.807 90.7048C152.042 90.4204 152.443 90.1269 153.091 89.8659L152.343 88.011ZM149.477 91.6484V112.605H151.477V91.6484H149.477ZM185.164 123.445H184.164V124.445H185.164V123.445ZM191.921 82.9404L192.28 83.8736L192.281 83.8733L191.921 82.9404ZM208.397 82.9404L208.037 83.8733L208.038 83.8736L208.397 82.9404ZM215.154 120.193L215.582 121.097L216.154 120.826V120.193H215.154ZM208.289 123.445V124.445H208.514L208.717 124.349L208.289 123.445ZM207.928 123.445H206.928V124.445H207.928V123.445ZM205.651 88.9385L205.277 89.8659L205.283 89.868L205.651 88.9385ZM194.631 88.9385L194.262 88.009L194.257 88.011L194.631 88.9385ZM192.391 120.193L192.819 121.097L193.391 120.826V120.193H192.391ZM185.525 123.445V124.445H185.75L185.953 124.349L185.525 123.445ZM186.164 123.445V90.3838H184.164V123.445H186.164ZM186.164 90.3838C186.164 87.7664 187.938 85.5456 192.28 83.8736L191.562 82.0072C186.895 83.804 184.164 86.5455 184.164 90.3838H186.164ZM192.281 83.8733C194.581 82.9852 197.202 82.5312 200.159 82.5312V80.5312C196.998 80.5312 194.127 81.0168 191.561 82.0076L192.281 83.8733ZM200.159 82.5312C203.116 82.5312 205.737 82.9852 208.037 83.8733L208.758 82.0076C206.192 81.0168 203.321 80.5312 200.159 80.5312V82.5312ZM208.038 83.8736C212.381 85.5456 214.154 87.7664 214.154 90.3838H216.154C216.154 86.5455 213.423 83.804 208.757 82.0072L208.038 83.8736ZM214.154 90.3838V120.193H216.154V90.3838H214.154ZM214.726 119.29L207.861 122.542L208.717 124.349L215.582 121.097L214.726 119.29ZM208.289 122.445H207.928V124.445H208.289V122.445ZM208.928 123.445V91.6484H206.928V123.445H208.928ZM208.928 91.6484C208.928 90.8163 208.659 90.0603 208.124 89.4244C207.605 88.8066 206.877 88.3489 206.02 88.009L205.283 89.868C205.943 90.1302 206.353 90.4253 206.593 90.7108C206.818 90.9782 206.928 91.2761 206.928 91.6484H208.928ZM206.025 88.011C204.38 87.3474 202.414 87.0352 200.159 87.0352V89.0352C202.241 89.0352 203.936 89.3251 205.277 89.8659L206.025 88.011ZM200.159 87.0352C197.904 87.0352 195.929 87.3477 194.262 88.009L195 89.868C196.368 89.3249 198.078 89.0352 200.159 89.0352V87.0352ZM194.257 88.011C193.411 88.3522 192.692 88.8116 192.18 89.4305C191.654 90.0667 191.391 90.8206 191.391 91.6484H193.391C193.391 91.2718 193.501 90.9719 193.721 90.7048C193.957 90.4204 194.357 90.1269 195.005 89.8659L194.257 88.011ZM191.391 91.6484V120.193H193.391V91.6484H191.391ZM191.963 119.29L185.097 122.542L185.953 124.349L192.819 121.097L191.963 119.29ZM185.525 122.445H185.164V124.445H185.525V122.445ZM255.984 105.993H256.984V104.993H255.984V105.993ZM249.228 121.313L249.588 122.246L249.596 122.243L249.228 121.313ZM232.751 121.313L232.383 122.243L232.391 122.246L232.751 121.313ZM232.751 82.9404L232.391 82.0075L232.383 82.0106L232.751 82.9404ZM249.228 82.9404L249.596 82.0106L249.588 82.0076L249.228 82.9404ZM255.984 95.0088L256.596 95.8L256.984 95.4997V95.0088H255.984ZM233.221 112.605L232.609 111.814L232.221 112.115V112.605H233.221ZM235.461 115.315L235.087 116.243L235.092 116.245L235.461 115.315ZM246.481 115.315L246.113 114.386L246.107 114.388L246.481 115.315ZM248.758 109.245L248.33 108.341L247.758 108.612V109.245H248.758ZM255.623 105.993V104.993H255.398L255.195 105.089L255.623 105.993ZM233.221 104.981H232.221V107.07L233.848 105.761L233.221 104.981ZM248.758 92.4795L249.385 93.2586L249.758 92.9584V92.4795H248.758ZM246.481 88.9385L246.107 89.8659L246.113 89.868L246.481 88.9385ZM235.461 88.9385L235.092 88.009L235.087 88.011L235.461 88.9385ZM254.984 105.993V113.87H256.984V105.993H254.984ZM254.984 113.87C254.984 116.438 253.214 118.661 248.86 120.384L249.596 122.243C254.251 120.401 256.984 117.662 256.984 113.87H254.984ZM248.867 120.381C246.567 121.269 243.946 121.723 240.989 121.723V123.723C244.151 123.723 247.022 123.237 249.588 122.246L248.867 120.381ZM240.989 121.723C238.032 121.723 235.411 121.269 233.111 120.381L232.391 122.246C234.957 123.237 237.828 123.723 240.989 123.723V121.723ZM233.119 120.384C228.765 118.661 226.994 116.438 226.994 113.87H224.994C224.994 117.662 227.728 120.401 232.383 122.243L233.119 120.384ZM226.994 113.87V90.3838H224.994V113.87H226.994ZM226.994 90.3838C226.994 87.8162 228.765 85.5933 233.119 83.8703L232.383 82.0106C227.728 83.8527 224.994 86.592 224.994 90.3838H226.994ZM233.111 83.8733C235.411 82.9852 238.032 82.5312 240.989 82.5312V80.5312C237.828 80.5312 234.957 81.0168 232.391 82.0076L233.111 83.8733ZM240.989 82.5312C243.946 82.5312 246.567 82.9852 248.867 83.8733L249.588 82.0076C247.022 81.0168 244.151 80.5312 240.989 80.5312V82.5312ZM248.86 83.8703C253.214 85.5933 254.984 87.8162 254.984 90.3838H256.984C256.984 86.592 254.251 83.8527 249.596 82.0106L248.86 83.8703ZM254.984 90.3838V95.0088H256.984V90.3838H254.984ZM255.373 94.2176L232.609 111.814L233.832 113.397L256.596 95.8L255.373 94.2176ZM232.221 112.605C232.221 113.433 232.484 114.187 233.01 114.823C233.522 115.442 234.241 115.902 235.087 116.243L235.835 114.388C235.188 114.127 234.787 113.834 234.551 113.549C234.331 113.282 234.221 112.982 234.221 112.605H232.221ZM235.092 116.245C236.759 116.906 238.734 117.219 240.989 117.219V115.219C238.908 115.219 237.198 114.929 235.83 114.386L235.092 116.245ZM240.989 117.219C243.244 117.219 245.21 116.906 246.855 116.243L246.107 114.388C244.766 114.929 243.071 115.219 240.989 115.219V117.219ZM246.85 116.245C247.707 115.905 248.435 115.447 248.954 114.829C249.489 114.194 249.758 113.438 249.758 112.605H247.758C247.758 112.978 247.648 113.276 247.423 113.543C247.183 113.829 246.774 114.124 246.113 114.386L246.85 116.245ZM249.758 112.605V109.245H247.758V112.605H249.758ZM249.186 110.149L256.051 106.897L255.195 105.089L248.33 108.341L249.186 110.149ZM255.623 106.993H255.984V104.993H255.623V106.993ZM233.848 105.761L249.385 93.2586L248.131 91.7004L232.594 104.202L233.848 105.761ZM249.758 92.4795V91.6484H247.758V92.4795H249.758ZM249.758 91.6484C249.758 90.8163 249.489 90.0603 248.954 89.4244C248.435 88.8066 247.707 88.3489 246.85 88.009L246.113 89.868C246.774 90.1302 247.183 90.4253 247.423 90.7108C247.648 90.9782 247.758 91.2761 247.758 91.6484H249.758ZM246.855 88.011C245.21 87.3474 243.244 87.0352 240.989 87.0352V89.0352C243.071 89.0352 244.766 89.3251 246.107 89.8659L246.855 88.011ZM240.989 87.0352C238.734 87.0352 236.759 87.3477 235.092 88.009L235.83 89.868C237.198 89.3249 238.908 89.0352 240.989 89.0352V87.0352ZM235.087 88.011C234.241 88.3522 233.522 88.8116 233.01 89.4305C232.484 90.0667 232.221 90.8206 232.221 91.6484H234.221C234.221 91.2718 234.331 90.9719 234.551 90.7048C234.787 90.4204 235.188 90.1269 235.835 89.8659L235.087 88.011ZM232.221 91.6484V104.981H234.221V91.6484H232.221ZM265.74 109.245L265.312 108.341L264.74 108.612V109.245H265.74ZM272.605 105.993V104.993H272.381L272.177 105.089L272.605 105.993ZM272.967 105.993H273.967V104.993H272.967V105.993ZM275.207 115.315L274.833 116.243L274.838 116.245L275.207 115.315ZM286.264 115.315L286.648 116.239L286.65 116.238L286.264 115.315ZM286.191 104.259L286.568 103.332L286.565 103.331L286.191 104.259ZM273.581 101.946L273.205 102.873L273.211 102.875L273.581 101.946ZM273.256 83.1572L273.654 84.0746L273.656 84.0736L273.256 83.1572ZM286.914 82.6152L287.307 81.6958L287.299 81.6922L286.914 82.6152ZM293.165 90.3838L293.593 91.2875L294.165 91.0166V90.3838H293.165ZM286.3 93.6357V94.6357H286.525L286.728 94.5395L286.3 93.6357ZM285.938 93.6357H284.938V94.6357H285.938V93.6357ZM276.038 88.9385L275.544 88.069L275.535 88.074L276.038 88.9385ZM288.938 98.2607L288.577 99.1936L288.58 99.1946L288.938 98.2607ZM288.974 121.313L289.334 122.246L289.337 122.245L288.974 121.313ZM272.497 121.313L272.129 122.243L272.137 122.246L272.497 121.313ZM266.168 110.149L273.034 106.897L272.177 105.089L265.312 108.341L266.168 110.149ZM272.605 106.993H272.967V104.993H272.605V106.993ZM271.967 105.993V112.605H273.967V105.993H271.967ZM271.967 112.605C271.967 113.433 272.23 114.187 272.756 114.823C273.268 115.442 273.987 115.902 274.833 116.243L275.581 114.388C274.934 114.127 274.533 113.834 274.298 113.549C274.077 113.282 273.967 112.982 273.967 112.605H271.967ZM274.838 116.245C276.505 116.906 278.48 117.219 280.735 117.219V115.219C278.655 115.219 276.944 114.929 275.576 114.386L274.838 116.245ZM280.735 117.219C283.055 117.219 285.041 116.908 286.648 116.239L285.879 114.392C284.596 114.927 282.896 115.219 280.735 115.219V117.219ZM286.65 116.238C287.492 115.885 288.206 115.42 288.715 114.805C289.237 114.173 289.504 113.426 289.504 112.605H287.504C287.504 112.965 287.397 113.26 287.173 113.531C286.935 113.82 286.528 114.12 285.877 114.393L286.65 116.238ZM289.504 112.605V106.969H287.504V112.605H289.504ZM289.504 106.969C289.504 105.214 288.303 104.037 286.568 103.332L285.815 105.185C287.163 105.733 287.504 106.363 287.504 106.969H289.504ZM286.565 103.331C284.92 102.668 282.954 102.355 280.699 102.355V104.355C282.781 104.355 284.476 104.645 285.817 105.186L286.565 103.331ZM280.699 102.355C278.449 102.355 276.202 101.913 273.951 101.017L273.211 102.875C275.682 103.859 278.18 104.355 280.699 104.355V102.355ZM273.957 101.02C271.943 100.202 270.517 99.234 269.601 98.1553C268.7 97.0953 268.258 95.8914 268.258 94.5029H266.258C266.258 96.3664 266.869 98.0291 268.077 99.4502C269.268 100.853 271.004 101.98 273.205 102.873L273.957 101.02ZM268.258 94.5029V90.3838H266.258V94.5029H268.258ZM268.258 90.3838C268.258 87.8619 269.843 85.7275 273.654 84.0746L272.858 82.2398C268.671 84.0557 266.258 86.739 266.258 90.3838H268.258ZM273.656 84.0736C276.021 83.0403 278.379 82.5312 280.735 82.5312V80.5312C278.082 80.5312 275.453 81.1062 272.856 82.2409L273.656 84.0736ZM280.735 82.5312C283.022 82.5312 284.945 82.8781 286.529 83.5383L287.299 81.6922C285.414 80.9071 283.218 80.5312 280.735 80.5312V82.5312ZM286.521 83.5347C288.506 84.3838 289.915 85.392 290.823 86.5212C291.719 87.6341 292.165 88.9082 292.165 90.3838H294.165C294.165 88.4629 293.57 86.744 292.381 85.2674C291.206 83.8071 289.489 82.6292 287.307 81.6958L286.521 83.5347ZM292.737 89.4801L285.872 92.732L286.728 94.5395L293.593 91.2875L292.737 89.4801ZM286.3 92.6357H285.938V94.6357H286.3V92.6357ZM286.938 93.6357V91.6484H284.938V93.6357H286.938ZM286.938 91.6484C286.938 89.9916 286.326 88.6278 284.913 87.9039L284.001 89.684C284.563 89.9718 284.938 90.511 284.938 91.6484H286.938ZM284.913 87.9039C283.744 87.3052 282.335 87.0352 280.735 87.0352V89.0352C282.123 89.0352 283.195 89.271 284.001 89.684L284.913 87.9039ZM280.735 87.0352C278.597 87.0352 276.826 87.3407 275.544 88.069L276.532 89.8079C277.37 89.3318 278.731 89.0352 280.735 89.0352V87.0352ZM275.535 88.074C274.19 88.8564 273.484 90.0901 273.484 91.6484H275.484C275.484 90.7979 275.815 90.225 276.541 89.803L275.535 88.074ZM273.484 91.6484V93.2383H275.484V91.6484H273.484ZM273.484 93.2383C273.484 94.7739 274.145 96.0093 275.445 96.802L276.486 95.0944C275.811 94.6827 275.484 94.1115 275.484 93.2383H273.484ZM275.445 96.802C276.675 97.5519 278.483 97.8516 280.699 97.8516V95.8516C278.579 95.8516 277.232 95.549 276.486 95.0944L275.445 96.802ZM280.699 97.8516C283.656 97.8516 286.277 98.3055 288.577 99.1936L289.298 97.3279C286.732 96.3371 283.861 95.8516 280.699 95.8516V97.8516ZM288.58 99.1946C292.949 100.868 294.73 103.09 294.73 105.704H296.73C296.73 101.863 293.983 99.1223 289.295 97.3269L288.58 99.1946ZM294.73 105.704V113.87H296.73V105.704H294.73ZM294.73 113.87C294.73 116.463 292.958 118.684 288.61 120.382L289.337 122.245C293.998 120.426 296.73 117.685 296.73 113.87H294.73ZM288.613 120.381C286.313 121.269 283.692 121.723 280.735 121.723V123.723C283.897 123.723 286.768 123.237 289.334 122.246L288.613 120.381ZM280.735 121.723C277.778 121.723 275.157 121.269 272.857 120.381L272.137 122.246C274.703 123.237 277.574 123.723 280.735 123.723V121.723ZM272.865 120.384C268.511 118.661 266.74 116.438 266.74 113.87H264.74C264.74 117.662 267.474 120.401 272.129 122.243L272.865 120.384ZM266.74 113.87V109.245H264.74V113.87H266.74ZM307.293 123.445H306.293V124.445H307.293V123.445ZM307.293 84.0605L306.865 83.1568L306.293 83.4277V84.0605H307.293ZM314.158 80.8086V79.8086H313.933L313.73 79.9049L314.158 80.8086ZM314.52 80.8086H315.52V79.8086H314.52V80.8086ZM314.52 120.193L314.948 121.097L315.52 120.826V120.193H314.52ZM307.654 123.445V124.445H307.879L308.082 124.349L307.654 123.445ZM308.552 73.5715C307.889 72.8901 307.57 72.104 307.57 71.1611H305.57C305.57 72.6271 306.094 73.9127 307.118 74.9656L308.552 73.5715ZM307.57 71.1611C307.57 70.1884 307.894 69.3919 308.552 68.7147L307.118 67.3205C306.09 68.3776 305.57 69.6769 305.57 71.1611H307.57ZM308.552 68.7147C309.208 68.0402 309.973 67.7168 310.906 67.7168V65.7168C309.43 65.7168 308.148 66.2606 307.118 67.3205L308.552 68.7147ZM310.906 67.7168C311.839 67.7168 312.605 68.0402 313.261 68.7147L314.695 67.3205C313.664 66.2606 312.382 65.7168 310.906 65.7168V67.7168ZM313.261 68.7147C313.919 69.3919 314.242 70.1884 314.242 71.1611H316.242C316.242 69.6769 315.722 68.3776 314.695 67.3205L313.261 68.7147ZM314.242 71.1611C314.242 72.104 313.923 72.8901 313.261 73.5715L314.695 74.9656C315.718 73.9127 316.242 72.6271 316.242 71.1611H314.242ZM313.261 73.5715C312.605 74.2459 311.839 74.5693 310.906 74.5693V76.5693C312.382 76.5693 313.664 76.0256 314.695 74.9656L313.261 73.5715ZM310.906 74.5693C309.973 74.5693 309.208 74.2459 308.552 73.5715L307.118 74.9656C308.148 76.0256 309.43 76.5693 310.906 76.5693V74.5693ZM308.293 123.445V84.0605H306.293V123.445H308.293ZM307.721 84.9643L314.586 81.7123L313.73 79.9049L306.865 83.1568L307.721 84.9643ZM314.158 81.8086H314.52V79.8086H314.158V81.8086ZM313.52 80.8086V120.193H315.52V80.8086H313.52ZM314.091 119.29L307.226 122.542L308.082 124.349L314.948 121.097L314.091 119.29ZM307.654 122.445H307.293V124.445H307.654V122.445ZM354.627 120.193L355.055 121.097L355.627 120.826V120.193H354.627ZM347.762 123.445V124.445H347.987L348.19 124.349L347.762 123.445ZM347.4 123.445H346.4V124.445H347.4V123.445ZM347.4 121.494H348.4V120.079L347.067 120.552L347.4 121.494ZM332.116 121.313L331.748 122.243L331.756 122.246L332.116 121.313ZM332.116 96.6709L332.476 97.6041L332.476 97.6038L332.116 96.6709ZM347.4 96.4902L347.063 97.4318L348.4 97.9102V96.4902H347.4ZM345.124 88.9385L344.75 89.8659L344.755 89.868L345.124 88.9385ZM330.852 88.0352H329.852V89.0352H330.852V88.0352ZM330.852 87.6738L329.947 87.248L329.852 87.4503V87.6738H330.852ZM333.742 81.5312V80.5312H333.108L332.837 81.1055L333.742 81.5312ZM347.87 82.9404L347.51 83.8733L347.511 83.8736L347.87 82.9404ZM334.826 115.315L334.452 116.243L334.457 116.245L334.826 115.315ZM345.124 115.315L344.755 114.386L344.75 114.388L345.124 115.315ZM345.124 102.669L344.75 103.596L344.755 103.598L345.124 102.669ZM334.826 102.669L334.457 101.739L334.452 101.742L334.826 102.669ZM354.199 119.29L347.334 122.542L348.19 124.349L355.055 121.097L354.199 119.29ZM347.762 122.445H347.4V124.445H347.762V122.445ZM348.4 123.445V121.494H346.4V123.445H348.4ZM347.067 120.552C344.869 121.33 342.513 121.723 339.993 121.723V123.723C342.725 123.723 345.307 123.296 347.734 122.437L347.067 120.552ZM339.993 121.723C337.288 121.723 334.785 121.272 332.476 120.381L331.756 122.246C334.313 123.234 337.062 123.723 339.993 123.723V121.723ZM332.484 120.384C328.13 118.661 326.359 116.438 326.359 113.87H324.359C324.359 117.662 327.093 120.401 331.748 122.243L332.484 120.384ZM326.359 113.87V104.114H324.359V113.87H326.359ZM326.359 104.114C326.359 101.497 328.133 99.2761 332.476 97.6041L331.757 95.7377C327.09 97.5345 324.359 100.276 324.359 104.114H326.359ZM332.476 97.6038C334.785 96.7121 337.288 96.2617 339.993 96.2617V94.2617C337.062 94.2617 334.313 94.7507 331.756 95.738L332.476 97.6038ZM339.993 96.2617C342.538 96.2617 344.892 96.6548 347.063 97.4318L347.737 95.5487C345.331 94.6877 342.747 94.2617 339.993 94.2617V96.2617ZM348.4 96.4902V91.6484H346.4V96.4902H348.4ZM348.4 91.6484C348.4 90.8163 348.131 90.0603 347.597 89.4244C347.078 88.8066 346.35 88.3489 345.493 88.009L344.755 89.868C345.416 90.1302 345.826 90.4253 346.066 90.7108C346.29 90.9782 346.4 91.2761 346.4 91.6484H348.4ZM345.498 88.011C343.852 87.3474 341.886 87.0352 339.632 87.0352V89.0352C341.713 89.0352 343.409 89.3251 344.75 89.8659L345.498 88.011ZM339.632 87.0352H330.852V89.0352H339.632V87.0352ZM331.852 88.0352V87.6738H329.852V88.0352H331.852ZM331.756 88.0996L334.647 81.957L332.837 81.1055L329.947 87.248L331.756 88.0996ZM333.742 82.5312H339.632V80.5312H333.742V82.5312ZM339.632 82.5312C342.589 82.5312 345.21 82.9852 347.51 83.8733L348.23 82.0076C345.664 81.0168 342.793 80.5312 339.632 80.5312V82.5312ZM347.511 83.8736C351.853 85.5456 353.627 87.7664 353.627 90.3838H355.627C355.627 86.5455 352.896 83.804 348.229 82.0072L347.511 83.8736ZM353.627 90.3838V120.193H355.627V90.3838H353.627ZM331.586 112.605C331.586 113.433 331.849 114.187 332.375 114.823C332.887 115.442 333.606 115.902 334.452 116.243L335.2 114.388C334.553 114.127 334.152 113.834 333.917 113.549C333.696 113.282 333.586 112.982 333.586 112.605H331.586ZM334.457 116.245C336.111 116.901 337.962 117.219 339.993 117.219V115.219C338.17 115.219 336.576 114.934 335.195 114.386L334.457 116.245ZM339.993 117.219C342.024 117.219 343.865 116.901 345.498 116.243L344.75 114.388C343.396 114.934 341.817 115.219 339.993 115.219V117.219ZM345.493 116.245C346.35 115.905 347.078 115.447 347.597 114.829C348.131 114.194 348.4 113.438 348.4 112.605H346.4C346.4 112.978 346.29 113.276 346.066 113.543C345.826 113.829 345.416 114.124 344.755 114.386L345.493 116.245ZM348.4 112.605V105.379H346.4V112.605H348.4ZM348.4 105.379C348.4 104.547 348.131 103.791 347.597 103.155C347.078 102.537 346.35 102.079 345.493 101.739L344.755 103.598C345.416 103.861 345.826 104.156 346.066 104.441C346.29 104.709 346.4 105.007 346.4 105.379H348.4ZM345.498 101.742C343.865 101.083 342.024 100.766 339.993 100.766V102.766C341.817 102.766 343.396 103.051 344.75 103.596L345.498 101.742ZM339.993 100.766C337.962 100.766 336.111 101.083 334.457 101.739L335.195 103.598C336.576 103.05 338.17 102.766 339.993 102.766V100.766ZM334.452 101.742C333.606 102.083 332.887 102.542 332.375 103.161C331.849 103.797 331.586 104.551 331.586 105.379H333.586C333.586 105.002 333.696 104.702 333.917 104.435C334.152 104.151 334.553 103.857 335.2 103.596L334.452 101.742ZM331.586 105.379V112.605H333.586V105.379H331.586Z" fill="#FFF1F1"/>
<path d="M117.543 23.7284C107.95 58.3996 87.7864 126.066 82.3549 143.917C81.9714 145.177 80.8191 146 79.5015 146H58.1869C56.2097 146 54.7732 144.121 55.292 142.213L59.6553 126.167L38.2481 124.514C37.5102 124.457 36.8193 124.129 36.3084 123.594L19.234 105.695C18.0285 104.431 18.153 102.409 19.5043 101.303L24.3544 97.3322L36.8732 89.4486C37.0254 89.3527 37.1859 89.2707 37.3528 89.2037L49.7075 84.2368C50.4277 83.9472 51.2321 83.9481 51.9517 84.2392L71.9126 92.3149L87.5711 39.5307C88.0997 37.7486 86.897 35.9195 85.0512 35.6987L58.9244 32.5737C56.1539 32.2423 55.2967 28.6394 57.6211 27.0958L94.8729 2.35775C96.0623 1.5679 97.6435 1.72573 98.6534 2.73506L116.765 20.8382C117.528 21.6013 117.831 22.6882 117.543 23.7284Z" fill="#009F8F"/>
<path d="M71.9126 92.3149L87.5711 39.5307C88.0997 37.7486 86.897 35.9195 85.0512 35.6987L58.9244 32.5737C56.1539 32.2423 55.2967 28.6394 57.6211 27.0958L94.8729 2.35775C96.0623 1.5679 97.6435 1.72573 98.6534 2.73506L116.765 20.8382C117.528 21.6013 117.831 22.6882 117.543 23.7284C107.95 58.3996 87.7864 126.066 82.3549 143.917C81.9714 145.177 80.8191 146 79.5015 146H58.1869C56.2097 146 54.7732 144.121 55.292 142.213L59.6553 126.167M71.9126 92.3149L63.7168 123.999C63.3527 125.407 62.0313 126.351 60.5814 126.239L59.6553 126.167M71.9126 92.3149L51.9517 84.2392C51.2321 83.9481 50.4277 83.9472 49.7075 84.2368L37.3528 89.2036C37.1859 89.2707 37.0254 89.3527 36.8732 89.4486L24.3544 97.3322L19.5043 101.303C18.153 102.409 18.0285 104.431 19.234 105.695L36.3084 123.594C36.8193 124.129 37.5102 124.457 38.2481 124.514L59.6553 126.167" stroke="white" stroke-width="3"/>
<path d="M42.484 173.412L44.145 153.707C44.3046 151.814 46.1607 150.544 47.9826 151.081L49.2691 151.461C50.5943 151.851 51.4837 153.095 51.4002 154.474C50.9283 162.276 49.6727 174.883 47.485 177.14C45.2694 179.425 43.4474 176.664 42.6357 174.58C42.4913 174.209 42.4506 173.809 42.484 173.412Z" fill="#009F8F" stroke="white" stroke-width="3"/>
<path d="M26.2921 173.473L27.1349 154.344C27.2122 152.59 28.7737 151.276 30.5157 151.501L32.6206 151.772C34.1692 151.972 35.3077 153.323 35.21 154.881C34.7196 162.707 33.4699 174.922 31.3199 177.14C29.0835 179.447 27.2482 176.612 26.4481 174.522C26.3202 174.188 26.2763 173.83 26.2921 173.473Z" fill="#009F8F" stroke="white" stroke-width="3"/>
<path d="M79.3255 115.647C79.3255 137.276 61.8955 154.795 40.4127 154.795C18.93 154.795 1.5 137.276 1.5 115.647C1.5 94.0187 18.93 76.5 40.4127 76.5C61.8955 76.5 79.3255 94.0187 79.3255 115.647Z" fill="#009F8F" stroke="white" stroke-width="3"/>
<path d="M54.0572 102.098C54.0572 109.32 48.3861 115.147 41.423 115.147C34.4599 115.147 28.7889 109.32 28.7889 102.098C28.7889 94.8767 34.4599 89.0491 41.423 89.0491C48.3861 89.0491 54.0572 94.8767 54.0572 102.098Z" fill="#FFFBFB" stroke="white"/>
<path d="M41.8127 124.396L41.9567 124.454L42.1083 124.42C43.3199 124.149 44.7314 123.757 46.2101 123.346C46.7236 123.203 47.2451 123.058 47.7693 122.916C49.8166 122.357 51.9164 121.827 53.807 121.552C55.7151 121.275 57.3268 121.272 58.4402 121.7C58.9836 121.908 59.3919 122.213 59.6686 122.628C59.9464 123.043 60.1191 123.611 60.1191 124.391C60.1191 125.954 59.4141 127.658 58.1961 129.362C56.9825 131.06 55.2886 132.716 53.3856 134.17C51.4837 135.624 49.3875 136.866 47.3805 137.742C45.366 138.622 43.4765 139.119 41.9799 139.119C38.9353 139.119 34.603 137.44 31.0142 134.883C29.228 133.61 27.6524 132.137 26.5275 130.579C25.4011 129.019 24.7477 127.405 24.7477 125.835C24.7477 124.304 25.3907 123.348 26.4319 122.752C27.5147 122.133 29.0673 121.884 30.8789 121.922C34.4907 121.999 38.8665 123.211 41.8127 124.396Z" fill="#FFFBFB" stroke="white"/>
<path d="M45.9746 105.225C45.9746 107.842 43.9223 109.936 41.4231 109.936C38.9238 109.936 36.8715 107.842 36.8715 105.225C36.8715 102.608 38.9238 100.514 41.4231 100.514C43.9223 100.514 45.9746 102.608 45.9746 105.225Z" fill="#FE1111" stroke="white"/>
<path d="M31.7748 173.357C31.2057 173.357 30.749 173.043 30.1142 173.13C29.6199 173.198 27.9502 173.768 27.9253 174.434C27.8703 175.91 30.046 176.044 31.1521 176.044C31.8392 176.044 32.496 175.235 32.6553 174.577C32.8632 173.72 31.6285 173.142 31.1017 172.78C30.6158 172.446 29.8063 172.222 29.2336 172.384C28.5702 172.572 27.2168 172.914 27.246 173.85C27.2711 174.653 27.9767 175.663 28.6927 175.992C29.465 176.346 30.4575 176.092 31.1898 175.752C32.8763 174.969 32.3206 172.685 31.347 171.476C30.8881 170.905 30.2783 170.71 29.5984 171.06C27.9526 171.909 27.9106 172.626 28.0386 174.408" stroke="white" stroke-width="3" stroke-linecap="round"/>
<path d="M47.1081 173.101C47.1081 171.527 43.4523 172.26 43.3719 173.919C43.2866 175.679 45.754 175.787 46.9886 175.787C47.9079 175.787 48.1904 175.252 48.1208 174.211C48.0038 172.461 46.0598 171.088 44.7934 172.751C43.8187 174.03 46.9859 175.925 47.9635 175.061C48.364 174.707 48.3698 173.566 47.8944 173.276C46.9868 172.724 45.744 172.867 44.7305 172.867" stroke="white" stroke-width="3" stroke-linecap="round"/>
</svg>
